<svg version="1.1" id="Layer_1" xmlns="http://www.w3.org/2000/svg" xmlns:xlink="http://www.w3.org/1999/xlink" x="0px" y="0px"
	 width="100%" viewBox="0 0 690 622" enable-background="new 0 0 690 622" xml:space="preserve">
<path fill="#FAFAFA" opacity="1.000000" stroke="none" 
	d="
M691.000000,154.000000 
	C691.000000,310.666656 691.000000,466.833282 691.000000,623.000000 
	C461.000061,623.000000 231.000092,623.000000 1.000104,623.000000 
	C1.000069,415.666748 1.000069,208.333481 1.000035,1.000159 
	C230.999893,1.000106 460.999786,1.000106 690.999878,1.000053 
	C691.000000,51.833332 691.000000,102.666664 691.000000,154.000000 
M681.984009,505.283539 
	C682.041321,502.620148 682.148560,499.956787 682.148743,497.293396 
	C682.157043,373.142334 682.194153,248.991196 682.066589,124.840263 
	C682.058411,116.907623 681.342468,108.874878 679.968323,101.062401 
	C674.807739,71.723396 659.542297,48.203297 636.065002,30.466997 
	C615.393066,14.849999 591.539673,7.770786 565.460876,7.790648 
	C419.812592,7.901575 274.164124,7.893756 128.515823,7.784837 
	C108.964195,7.770216 90.271049,10.807297 72.640244,19.656809 
	C44.792854,33.634377 25.669500,55.256920 15.058556,84.482559 
	C9.880815,98.743561 8.512387,113.570541 8.514510,128.613953 
	C8.531157,246.599136 8.513664,364.584320 8.544855,482.569519 
	C8.547098,491.054535 8.557080,499.557343 9.071951,508.020966 
	C10.358986,529.177612 17.030165,548.661438 29.561586,565.703064 
	C53.265961,597.938843 85.245766,614.207458 125.492256,614.186340 
	C272.473755,614.109253 419.455353,614.139343 566.436890,614.177429 
	C584.475830,614.182068 601.734680,610.844788 617.823059,602.552429 
	C657.018066,582.350525 678.311523,550.160339 681.984009,505.283539 
z"/>
<path fill="#010101" opacity="1.000000" stroke="none" 
	d="
M681.932800,505.754578 
	C678.311523,550.160339 657.018066,582.350525 617.823059,602.552429 
	C601.734680,610.844788 584.475830,614.182068 566.436890,614.177429 
	C419.455353,614.139343 272.473755,614.109253 125.492256,614.186340 
	C85.245766,614.207458 53.265961,597.938843 29.561586,565.703064 
	C17.030165,548.661438 10.358986,529.177612 9.071951,508.020966 
	C8.557080,499.557343 8.547098,491.054535 8.544855,482.569519 
	C8.513664,364.584320 8.531157,246.599136 8.514510,128.613953 
	C8.512387,113.570541 9.880815,98.743561 15.058556,84.482559 
	C25.669500,55.256920 44.792854,33.634377 72.640244,19.656809 
	C90.271049,10.807297 108.964195,7.770216 128.515823,7.784837 
	C274.164124,7.893756 419.812592,7.901575 565.460876,7.790648 
	C591.539673,7.770786 615.393066,14.849999 636.065002,30.466997 
	C659.542297,48.203297 674.807739,71.723396 679.968323,101.062401 
	C681.342468,108.874878 682.058411,116.907623 682.066589,124.840263 
	C682.194153,248.991196 682.157043,373.142334 682.148743,497.293396 
	C682.148560,499.956787 682.041321,502.620148 681.932800,505.754578 
M83.285439,30.855928 
	C64.952896,38.167011 50.837589,50.691898 39.939522,66.831352 
	C27.682693,84.983055 23.071938,105.319473 23.097979,127.113647 
	C23.242922,248.426239 23.157936,369.739105 23.195646,491.051880 
	C23.197557,497.200928 23.301998,503.378662 23.879097,509.493958 
	C26.824594,540.706238 41.866478,565.047424 67.288521,582.764893 
	C84.759872,594.941284 104.748711,599.847107 125.999847,599.843933 
	C271.308563,599.822205 416.617249,599.814758 561.925964,599.856567 
	C578.690186,599.861389 594.842529,597.408264 610.187195,590.196838 
	C629.616333,581.065796 644.353882,566.994385 654.950439,548.524536 
	C664.552551,531.788086 667.849609,513.474426 667.845398,494.381683 
	C667.819580,378.234711 667.851990,262.087708 667.799744,145.940750 
	C667.794983,135.293640 667.801636,124.610840 666.991455,114.006607 
	C664.740601,84.544930 651.266541,60.832211 628.219849,42.766281 
	C609.771606,28.305004 588.235901,22.189428 564.948853,22.184212 
	C418.307037,22.151360 271.665192,22.131243 125.023453,22.225594 
	C110.865196,22.234703 96.992500,24.455717 83.285439,30.855928 
z"/>
<path fill="#FEFEFE" opacity="1.000000" stroke="none" 
	d="
M83.631226,30.686068 
	C96.992500,24.455717 110.865196,22.234703 125.023453,22.225594 
	C271.665192,22.131243 418.307037,22.151360 564.948853,22.184212 
	C588.235901,22.189428 609.771606,28.305004 628.219849,42.766281 
	C651.266541,60.832211 664.740601,84.544930 666.991455,114.006607 
	C667.801636,124.610840 667.794983,135.293640 667.799744,145.940750 
	C667.851990,262.087708 667.819580,378.234711 667.845398,494.381683 
	C667.849609,513.474426 664.552551,531.788086 654.950439,548.524536 
	C644.353882,566.994385 629.616333,581.065796 610.187195,590.196838 
	C594.842529,597.408264 578.690186,599.861389 561.925964,599.856567 
	C416.617249,599.814758 271.308563,599.822205 125.999847,599.843933 
	C104.748711,599.847107 84.759872,594.941284 67.288521,582.764893 
	C41.866478,565.047424 26.824594,540.706238 23.879097,509.493958 
	C23.301998,503.378662 23.197557,497.200928 23.195646,491.051880 
	C23.157936,369.739105 23.242922,248.426239 23.097979,127.113647 
	C23.071938,105.319473 27.682693,84.983055 39.939522,66.831352 
	C50.837589,50.691898 64.952896,38.167011 83.631226,30.686068 
M170.372589,252.087296 
	C189.977921,271.263000 209.583252,290.438721 229.320740,309.743713 
	C227.068130,312.107269 225.956345,313.322906 224.792984,314.487061 
	C207.721100,331.570648 190.692947,348.698364 173.546127,365.706451 
	C163.313171,375.856598 158.370331,387.871246 161.501801,402.132019 
	C164.679367,416.602722 173.897934,426.126129 188.272552,429.900421 
	C201.844879,433.464050 213.928757,429.946320 223.851822,420.084290 
	C251.614746,392.492126 279.338196,364.858124 306.798279,336.965973 
	C310.615570,333.088593 313.877014,328.014008 315.644867,322.889587 
	C321.136780,306.970062 316.359985,293.328949 304.702240,281.692780 
	C280.063934,257.100037 255.482162,232.450623 230.827133,207.874649 
	C227.543533,204.601593 224.065201,201.505630 220.511978,198.524384 
	C203.076233,183.895355 175.651489,189.122604 165.131149,209.435791 
	C157.434708,224.296478 159.297714,238.536575 170.372589,252.087296 
M376.945557,295.673553 
	C366.065826,321.522186 383.485931,347.924561 411.517212,347.988312 
	C435.159760,348.042114 458.802521,347.999451 482.445190,347.999390 
	C497.596466,347.999359 512.748535,348.095978 527.898804,347.970306 
	C541.485962,347.857635 552.457764,342.312317 559.539734,330.640320 
	C574.975586,305.200256 557.522400,274.229980 527.615601,274.055908 
	C488.822968,273.830109 450.027283,273.866394 411.234375,274.067505 
	C395.889038,274.147095 384.348877,281.145264 376.945557,295.673553 
z"/>
<path fill="#000000" opacity="1.000000" stroke="none" 
	d="
M170.128159,251.826111 
	C159.297714,238.536575 157.434708,224.296478 165.131149,209.435791 
	C175.651489,189.122604 203.076233,183.895355 220.511978,198.524384 
	C224.065201,201.505630 227.543533,204.601593 230.827133,207.874649 
	C255.482162,232.450623 280.063934,257.100037 304.702240,281.692780 
	C316.359985,293.328949 321.136780,306.970062 315.644867,322.889587 
	C313.877014,328.014008 310.615570,333.088593 306.798279,336.965973 
	C279.338196,364.858124 251.614746,392.492126 223.851822,420.084290 
	C213.928757,429.946320 201.844879,433.464050 188.272552,429.900421 
	C173.897934,426.126129 164.679367,416.602722 161.501801,402.132019 
	C158.370331,387.871246 163.313171,375.856598 173.546127,365.706451 
	C190.692947,348.698364 207.721100,331.570648 224.792984,314.487061 
	C225.956345,313.322906 227.068130,312.107269 229.320740,309.743713 
	C209.583252,290.438721 189.977921,271.263000 170.128159,251.826111 
z"/>
<path fill="#000000" opacity="1.000000" stroke="none" 
	d="
M377.078064,295.313904 
	C384.348877,281.145264 395.889038,274.147095 411.234375,274.067505 
	C450.027283,273.866394 488.822968,273.830109 527.615601,274.055908 
	C557.522400,274.229980 574.975586,305.200256 559.539734,330.640320 
	C552.457764,342.312317 541.485962,347.857635 527.898804,347.970306 
	C512.748535,348.095978 497.596466,347.999359 482.445190,347.999390 
	C458.802521,347.999451 435.159760,348.042114 411.517212,347.988312 
	C383.485931,347.924561 366.065826,321.522186 377.078064,295.313904 
z"/>
</svg>